<?xml version="1.0" encoding="UTF-8"?>
<svg width="16px" height="14px" viewBox="0 0 16 14" version="1.1" xmlns="http://www.w3.org/2000/svg" xmlns:xlink="http://www.w3.org/1999/xlink">
    <!-- Generator: Sketch 49.3 (51167) - http://www.bohemiancoding.com/sketch -->
    <title>svg/header/burger_auto</title>
    <desc>Created with Sketch.</desc>
    <defs></defs>
    <g id="Symbols" stroke="none" stroke-width="1" fill="none" fill-rule="evenodd">
        <g id="header_index_03" transform="translate(-310.000000, -59.000000)" fill="#231815">
            <g id="header_index_01" transform="translate(-55.000000, -18.000000)">
                <g id="Автомобили" transform="translate(351.000000, 64.000000)">
                    <path d="M15,13 L21,13 C21.5522847,13 22,13.4477153 22,14 C22,14.5522847 21.5522847,15 21,15 L15,15 C14.4477153,15 14,14.5522847 14,14 C14,13.4477153 14.4477153,13 15,13 Z M23,25 L29,25 C29.5522847,25 30,25.4477153 30,26 C30,26.5522847 29.5522847,27 29,27 L23,27 C22.4477153,27 22,26.5522847 22,26 C22,25.4477153 22.4477153,25 23,25 Z M15,19 L29,19 C29.5522847,19 30,19.4477153 30,20 C30,20.5522847 29.5522847,21 29,21 L15,21 C14.4477153,21 14,20.5522847 14,20 C14,19.4477153 14.4477153,19 15,19 Z" id="svg/header/burger_auto"></path>
                </g>
            </g>
        </g>
    </g>
</svg>