<?xml version="1.0" encoding="UTF-8"?>
<svg width="73px" height="21px" viewBox="0 0 73 21" version="1.1" xmlns="http://www.w3.org/2000/svg" xmlns:xlink="http://www.w3.org/1999/xlink">
    <!-- Generator: sketchtool 51 (57462) - http://www.bohemiancoding.com/sketch -->
    <title>7CA7D20A-B893-475D-897A-C63ED8EC5547</title>
    <desc>Created with sketchtool.</desc>
    <defs></defs>
    <g id="new" stroke="none" stroke-width="1" fill="none" fill-rule="evenodd">
        <g id="final/geely_TO_probeg_01" transform="translate(-451.000000, -304.000000)">
            <rect fill="#FFFFFF" x="0" y="0" width="1432" height="1325"></rect>
            <g id="ползунок" transform="translate(434.000000, 304.000000)" fill="#B9CEE7">
                <path d="M83,14.4319805 L86.3106602,11.1213203 L83,7.81066017 L84.8106602,6 L89.9319805,11.1213203 L84.8106602,16.2426407 L83,14.4319805 Z M23.9319805,7.81066017 L20.6213203,11.1213203 L23.9319805,14.4319805 L22.1213203,16.2426407 L17,11.1213203 L22.1213203,6 L23.9319805,7.81066017 Z M32.7242903,16.0873969 C27.5811392,16.1833444 27.2932966,13.9149994 27.2932966,13.9149994 L26.9312303,12.4667344 L26.9312303,11.0184694 L27.2932966,9.57020444 L27.6553628,9.20813819 C27.6553628,9.20813819 27.6137252,7.86668276 27.6553628,7.39780697 C27.6970004,6.92893118 27.6553628,5.94954199 27.6553628,5.94954199 C27.6553628,5.94954199 28.2965821,5.080583 28.7415616,4.50127701 C29.186541,3.92197101 32.362224,1.96681329 32.362224,1.96681329 C32.4482334,1.59409549 32.5694671,1.23039442 32.7242903,0.880614552 C37.4695305,0.0243278822 52.327643,-0.186032606 55.1723975,0.156482062 C58.017152,0.49899673 62.0339149,3.67830043 64.5861198,5.94954199 C72.2130453,5.97923142 77.2584384,7.75987321 77.2584384,7.75987321 L77.6205047,8.12193946 C78.0455913,8.81280949 78.4090594,9.53974561 78.7067034,10.2943369 C79.1665134,11.4574289 79.1665134,12.7519074 78.7067034,13.9149994 L79.0687697,15.0011981 L78.9203225,15.1496453 L78.3446372,15.7253306 L76.1722397,16.4494631 C75.4416576,16.5276221 74.7162823,16.648518 73.9998422,16.8115293 C72.8390578,19.8829373 71.1319155,20.2844688 69.6550473,20.4321918 C65.5224232,20.4321918 64.9481861,16.4494631 64.9481861,16.4494631 C64.9481861,16.4494631 45.0099221,16.8115293 41.7759464,16.8115293 C41.2954845,19.8384032 39.2548791,20.4321918 37.0690852,20.4321918 C32.4433269,19.9376093 32.7242903,16.0873969 32.7242903,16.0873969 Z" id="svg/probeg/car"></path>
            </g>
        </g>
    </g>
</svg>