<?xml version="1.0" encoding="UTF-8"?>
<svg width="27px" height="24px" viewBox="0 0 27 24" version="1.1" xmlns="http://www.w3.org/2000/svg" xmlns:xlink="http://www.w3.org/1999/xlink">
    <!-- Generator: sketchtool 51 (57462) - http://www.bohemiancoding.com/sketch -->
    <title>1AFB123F-8D59-45E7-9D9E-A65247E74FE2</title>
    <desc>Created with sketchtool.</desc>
    <defs></defs>
    <g id="new" stroke="none" stroke-width="1" fill="none" fill-rule="evenodd">
        <g id="final/geely_TO_probeg_01" transform="translate(-977.000000, -663.000000)">
            <rect x="0" y="0" width="1432" height="1325"></rect>
            <g id="таблица" transform="translate(400.000000, 499.000000)" fill="#0167B2">
                <path d="M588.257359,176.863961 L600.985281,164.136039 L603.106602,166.257359 L590.37868,178.985281 L588.257359,181.106602 L581.893398,174.742641 L584.014719,172.62132 L588.257359,176.863961 Z M594.858192,168.399168 L592.71842,170.53894 C591.395612,169.571266 589.764519,169 588,169 C583.581722,169 580,172.581722 580,177 C580,181.418278 583.581722,185 588,185 C592.418278,185 596,181.418278 596,177 C596,176.601835 595.970912,176.210464 595.914745,175.827895 L598.383251,173.359389 C598.782761,174.498874 599,175.724068 599,177 C599,183.075132 594.075132,188 588,188 C581.924868,188 577,183.075132 577,177 C577,170.924868 581.924868,166 588,166 C590.59362,166 592.977588,166.897627 594.858192,168.399168 Z" id="svg/probeg/chekactive"></path>
            </g>
        </g>
    </g>
</svg>