<?xml version="1.0" encoding="UTF-8"?>
<svg width="14px" height="22px" viewBox="0 0 14 22" version="1.1" xmlns="http://www.w3.org/2000/svg" xmlns:xlink="http://www.w3.org/1999/xlink">
    <!-- Generator: Sketch 49.3 (51167) - http://www.bohemiancoding.com/sketch -->
    <title>svg/header/map_point</title>
    <desc>Created with Sketch.</desc>
    <defs></defs>
    <g id="Symbols" stroke="none" stroke-width="1" fill="none" fill-rule="evenodd" opacity="0.5">
        <g id="header_index_03" transform="translate(-956.000000, -54.000000)" fill="#5394C7" fill-rule="nonzero">
            <g id="header_index_01" transform="translate(-55.000000, -18.000000)">
                <g id="Контакты" transform="translate(565.000000, 69.000000)">
                    <g id="adress" transform="translate(446.000000, 3.000000)">
                        <g id="placeholder-tool">
                            <path d="M7,0 C3.13359375,0 0,3.07763672 0,7 C0,7.90087891 0.2296875,8.87575391 1,10 L6,21 C6.22619375,21.6589141 6.5926,22 7,22 C7.4074,22 7.77385,21.6589141 8,21 L13,10 C13.7716687,8.87575391 14,7.90087891 14,7 C14,3.07763672 10.8664062,0 7,0 Z M7,11 C4.79166667,11 3,9.20833333 3,7 C3,4.79166667 4.79166667,3 7,3 C9.20833333,3 11,4.79166667 11,7 C11,9.20833333 9.20833333,11 7,11 Z" id="svg/header/map_point"></path>
                        </g>
                    </g>
                </g>
            </g>
        </g>
    </g>
</svg>