<?xml version="1.0" encoding="UTF-8"?>
<svg width="73px" height="22px" viewBox="0 0 73 22" version="1.1" xmlns="http://www.w3.org/2000/svg" xmlns:xlink="http://www.w3.org/1999/xlink">
    <!-- Generator: sketchtool 51 (57462) - http://www.bohemiancoding.com/sketch -->
    <title>09FAD328-0689-4A9A-841B-316A3A1F64A1</title>
    <desc>Created with sketchtool.</desc>
    <defs></defs>
    <g id="new" stroke="none" stroke-width="1" fill="none" fill-rule="evenodd">
        <g id="final/geely_TO_probeg_01" transform="translate(-402.000000, -389.000000)">
            <rect fill="#FFFFFF" x="0" y="0" width="1432" height="1325"></rect>
            <g id="ползунок-copy" transform="translate(386.000000, 319.000000)" fill="#B9CEE7">
                <path d="M67.0869946,74.0664772 C67.0298801,74.3689087 67,74.6809649 67,75 C67,76.5964209 67.7481706,78.0180973 68.9130054,78.9335228 C68.475763,81.2488017 66.4423887,83 64,83 C61.2385763,83 59,80.7614237 59,78 C59,75.2385763 61.2385763,73 64,73 C65.1650028,73 66.2369457,73.3984371 67.0869946,74.0664772 Z M53.4359349,70.3503837 C53.1552729,71.0107339 53,71.737234 53,72.5 C53,74.8562175 54.481644,76.8663786 56.5640651,77.6496163 C55.727046,79.6189813 53.7748001,81 51.5,81 C48.4624339,81 46,78.5375661 46,75.5 C46,72.4624339 48.4624339,70 51.5,70 C52.1813486,70 52.8337601,70.1238944 53.4359349,70.3503837 Z M39.4006762,73.0355492 C39.1427701,73.6385976 39,74.3026259 39,75 C39,77.7614237 41.2385763,80 44,80 C44.2028218,80 44.402823,79.9879237 44.5993238,79.9644508 C43.8359874,81.7493204 42.0640496,83 40,83 C37.2385763,83 35,80.7614237 35,78 C35,75.441398 36.9218135,73.3316596 39.4006762,73.0355492 Z M29.4785109,80.4785109 C29.1723862,81.0863125 29,81.7730248 29,82.5 C29,84.9852814 31.0147186,87 33.5,87 C34.2269752,87 34.9136875,86.8276138 35.5214891,86.5214891 C34.7810774,87.9915549 33.2583062,89 31.5,89 C29.0147186,89 27,86.9852814 27,84.5 C27,82.7416938 28.0084451,81.2189226 29.4785109,80.4785109 Z M82,89.4319805 L85.3106602,86.1213203 L82,82.8106602 L83.8106602,81 L88.9319805,86.1213203 L83.8106602,91.2426407 L82,89.4319805 Z M22.9319805,82.8106602 L19.6213203,86.1213203 L22.9319805,89.4319805 L21.1213203,91.2426407 L16,86.1213203 L21.1213203,81 L22.9319805,82.8106602 Z M73.5,89 C71.0147186,89 69,86.9852814 69,84.5 C69,82.0147186 71.0147186,80 73.5,80 C75.9852814,80 78,82.0147186 78,84.5 C78,86.9852814 75.9852814,89 73.5,89 Z" id="svg/probeg/probeg/period"></path>
            </g>
        </g>
    </g>
</svg>