<?xml version="1.0" encoding="UTF-8"?>
<svg width="12px" height="22px" viewBox="0 0 12 22" version="1.1" xmlns="http://www.w3.org/2000/svg" xmlns:xlink="http://www.w3.org/1999/xlink">
    <!-- Generator: Sketch 49.3 (51167) - http://www.bohemiancoding.com/sketch -->
    <title>svg/header/phone_icon</title>
    <desc>Created with Sketch.</desc>
    <defs></defs>
    <g id="Symbols" stroke="none" stroke-width="1" fill="none" fill-rule="evenodd" opacity="0.5">
        <g id="header_index_03" transform="translate(-516.000000, -54.000000)" fill="#5394C7" fill-rule="nonzero">
            <g id="header_index_01" transform="translate(-55.000000, -18.000000)">
                <g id="Контакты" transform="translate(565.000000, 69.000000)">
                    <g id="phone">
                        <g id="call-answer" transform="translate(13.388279, 13.834844) rotate(-330.000000) translate(-13.388279, -13.834844) translate(3.888279, 4.334844)">
                            <path d="M18.000974,15.1390564 L15.2211548,12.3526276 C14.6674663,11.7999132 13.7505474,11.8167061 13.1775701,12.3911891 L11.7770852,13.7945362 C11.6886047,13.7456606 11.5970214,13.6946081 11.5007322,13.6404458 C10.6163407,13.1493054 9.40590016,12.4761383 8.13216325,11.1985824 C6.85465131,9.9183313 6.18238547,8.70328227 5.69085572,7.8163167 C5.63898782,7.72234904 5.58929186,7.63175032 5.54021646,7.54571264 L6.48014752,6.60505125 L6.94225272,6.14132888 C7.51610918,5.56601666 7.53193328,4.64727934 6.97953762,4.09295825 L4.19971838,1.30621845 C3.64732271,0.752674806 2.72999012,0.769467703 2.15613366,1.34477992 L1.37268539,2.13451255 L1.39409447,2.15581465 C1.13139367,2.49177625 0.911873016,2.8792568 0.748512417,3.29710969 C0.59792487,3.69485256 0.504169642,4.07440313 0.461299766,4.45473115 C0.0942426189,7.5046115 1.48479865,10.2919733 5.25858878,14.074366 C10.4751131,19.3023473 14.6789465,18.9074032 14.8603032,18.8881225 C15.2552852,18.8408018 15.6338226,18.7462122 16.0185138,18.5964755 C16.4318021,18.4346624 16.8181482,18.2149554 17.1531434,17.9522295 L17.1702603,17.9674675 L17.9639477,17.1885155 C18.5366148,16.6133069 18.5531111,15.6942586 18.000974,15.1390564 Z" id="svg/header/phone_icon"></path>
                        </g>
                    </g>
                </g>
            </g>
        </g>
    </g>
</svg>