<?xml version="1.0" encoding="UTF-8"?>
<svg width="28px" height="28px" viewBox="0 0 28 28" version="1.1" xmlns="http://www.w3.org/2000/svg" xmlns:xlink="http://www.w3.org/1999/xlink">
    <!-- Generator: Sketch 49.3 (51167) - http://www.bohemiancoding.com/sketch -->
    <title>svg/header/search_icon</title>
    <desc>Created with Sketch.</desc>
    <defs></defs>
    <g id="Symbols" stroke="none" stroke-width="1" fill="none" fill-rule="evenodd">
        <g id="header_index_03" transform="translate(-1335.000000, -35.000000)" fill="#0167B2" fill-rule="nonzero">
            <g id="header_index_01" transform="translate(-55.000000, -18.000000)">
                <g id="search" transform="translate(1390.000000, 53.000000)">
                    <path d="M27.5317062,25.2539199 L22.7389793,20.4298845 C24.6912028,18.189334 25.7608376,15.370263 25.7608376,12.4354878 C25.7608376,5.57866798 19.9825697,0 12.8804188,0 C5.77826787,0 0,5.57866798 0,12.4354878 C0,19.2923077 5.77826787,24.8709757 12.8804188,24.8709757 C15.5466655,24.8709757 18.0874681,24.0945687 20.2597787,22.620693 L25.1101875,27.5025805 C25.4299579,27.8231998 25.8600518,28 26.3209468,28 C26.757201,28 27.1710545,27.83942 27.4852247,27.5474564 C28.1527664,26.927304 28.1740471,25.8989432 27.5317062,25.2539199 Z M12.8804188,3.2440403 C18.1300295,3.2440403 22.4007283,7.36721553 22.4007283,12.4354878 C22.4007283,17.5037601 18.1300295,21.6269354 12.8804188,21.6269354 C7.6308081,21.6269354 3.36010925,17.5037601 3.36010925,12.4354878 C3.36010925,7.36721553 7.6308081,3.2440403 12.8804188,3.2440403 Z" id="svg/header/search_icon"></path>
                </g>
            </g>
        </g>
    </g>
</svg>