<?xml version="1.0" encoding="UTF-8"?>
<svg width="32px" height="32px" viewBox="0 0 32 32" version="1.1" xmlns="http://www.w3.org/2000/svg" xmlns:xlink="http://www.w3.org/1999/xlink">
    <!-- Generator: Sketch 49.3 (51167) - http://www.bohemiancoding.com/sketch -->
    <title>svg/index/share_instagram_icon</title>
    <desc>Created with Sketch.</desc>
    <defs></defs>
    <g id="Page-1" stroke="none" stroke-width="1" fill="none" fill-rule="evenodd">
        <g id="geely_index_menu_cars_03" transform="translate(-501.000000, -1320.000000)">
            <g id="Следите-за-нами-в-соцсетях" transform="translate(70.000000, 1245.000000)">
                <g id="Табы-соцсетей" transform="translate(431.000000, 75.000000)">
                    <g id="Ins">
                        <g id="svg/index/share_instagram_icon">
                            <circle id="Oval-2-Copy-2" fill="#B9CEE7" opacity="0.234318388" cx="16" cy="16" r="16"></circle>
                            <g id="instagram" transform="translate(7.000000, 8.000000)" fill="#231815" fill-rule="nonzero">
                                <path d="M12.0617988,0 L4.93823438,0 C2.2152793,0 0,2.2152793 0,4.93823438 L0,12.0617656 C0,14.7847207 2.2152793,17 4.93823438,17 L12.0617656,17 C14.7847207,17 17,14.7847207 17,12.0617988 L17,4.93823438 C17,2.2152793 14.7847207,0 12.0617988,0 Z M15.671875,12.0617656 C15.671875,14.0523926 14.0523926,15.671875 12.0617988,15.671875 L4.93823437,15.671875 C2.94760742,15.671875 1.328125,14.0523926 1.328125,12.0617988 L1.328125,4.93823437 C1.328125,2.94760742 2.94760742,1.328125 4.93823437,1.328125 L12.0617656,1.328125 C14.0523926,1.328125 15.671875,2.94760742 15.671875,4.93823437 L15.671875,12.0617656 Z" id="Shape"></path>
                                <path d="M8.5,3.77777778 C5.89613929,3.77777778 3.77777778,5.89613929 3.77777778,8.5 C3.77777778,11.1038607 5.89613929,13.2222222 8.5,13.2222222 C11.1038607,13.2222222 13.2222222,11.1038607 13.2222222,8.5 C13.2222222,5.89613929 11.1038607,3.77777778 8.5,3.77777778 Z M8.5,11.8534622 C6.65090781,11.8534622 5.14653784,10.3490922 5.14653784,8.5 C5.14653784,6.65090781 6.65090781,5.14653784 8.5,5.14653784 C10.3490922,5.14653784 11.8534622,6.65090781 11.8534622,8.5 C11.8534622,10.3490922 10.3490922,11.8534622 8.5,11.8534622 Z" id="Shape"></path>
                                <circle id="Oval" cx="13.2222222" cy="3.77777778" r="1"></circle>
                            </g>
                        </g>
                    </g>
                </g>
            </g>
        </g>
    </g>
</svg>