<?xml version="1.0" encoding="UTF-8"?>
<svg width="32px" height="32px" viewBox="0 0 32 32" version="1.1" xmlns="http://www.w3.org/2000/svg" xmlns:xlink="http://www.w3.org/1999/xlink">
    <!-- Generator: Sketch 49.3 (51167) - http://www.bohemiancoding.com/sketch -->
    <title>svg/index/share_vk_icon</title>
    <desc>Created with Sketch.</desc>
    <defs></defs>
    <g id="Page-1" stroke="none" stroke-width="1" fill="none" fill-rule="evenodd">
        <g id="geely_index_menu_cars_03" transform="translate(-656.000000, -1320.000000)">
            <g id="Следите-за-нами-в-соцсетях" transform="translate(70.000000, 1245.000000)">
                <g id="Табы-соцсетей" transform="translate(431.000000, 75.000000)">
                    <g id="VK" transform="translate(155.000000, 0.000000)">
                        <g id="svg/index/share_vk_icon">
                            <circle id="Oval-2-Copy" fill="#B9CEE7" opacity="0.234318388" cx="16" cy="16" r="16"></circle>
                            <g id="vk-social-logotype" transform="translate(6.000000, 10.000000)" fill="#0167B2">
                                <path d="M16.5942916,7.40599488 C17.2002046,7.99781074 17.8412276,8.55478261 18.3851662,9.20777494 C18.6261483,9.49663427 18.8532992,9.79533504 19.0261893,10.1312737 C19.273023,10.610312 19.0501279,11.1356317 18.6213606,11.1640921 L15.9580563,11.1635601 C15.2702199,11.2204808 14.7228235,10.9430588 14.2613402,10.472798 C13.8929514,10.0980256 13.5511611,9.69771867 13.1963376,9.31017903 C13.051376,9.1511202 12.8987008,9.00137084 12.7167673,8.88353964 C12.3536982,8.64734527 12.0382404,8.71969309 11.8302404,9.09898721 C11.6182506,9.48493095 11.5698414,9.91263427 11.5496266,10.3421995 C11.5206343,10.9701893 11.3312532,11.1343018 10.7011355,11.1638261 C9.35472123,11.2268645 8.07719693,11.0225882 6.88984143,10.3437954 C5.84239386,9.74506394 5.03167263,8.90003069 4.32521739,7.94328389 C2.94954476,6.07819949 1.89597954,4.03118159 0.949340153,1.92538107 C0.736286445,1.45113043 0.892153453,1.19738107 1.41534527,1.18753964 C2.28458312,1.17078261 3.15382097,1.17291049 4.02305882,1.18674169 C4.37681841,1.19232737 4.61088491,1.39474169 4.74680307,1.72855243 C5.21653197,2.88425575 5.79238875,3.98383632 6.51400512,5.00362148 C6.70631202,5.27519182 6.9026087,5.54596419 7.18215857,5.73773913 C7.49070077,5.94946292 7.7258312,5.87950895 7.87132481,5.53505882 C7.96441944,5.31615345 8.00458312,5.08208696 8.02479795,4.84748849 C8.09395396,4.04394885 8.10219949,3.24067519 7.98250639,2.44032737 C7.90803069,1.93947826 7.62635294,1.61604092 7.12709974,1.52135038 C6.87281841,1.47320716 6.91005627,1.37904859 7.03373913,1.23382097 C7.24838875,0.982731458 7.44947315,0.827396419 7.85137596,0.827396419 L10.8604604,0.82686445 C11.334711,0.919959079 11.4411049,1.1327468 11.5054731,1.61045524 L11.508133,4.95441432 C11.5025473,5.13927366 11.6009616,5.68720205 11.9329105,5.80822506 C12.1988951,5.896 12.374445,5.68268031 12.5335038,5.51431202 C13.2551202,4.7485422 13.7692685,3.84472634 14.229688,2.90925831 C14.4329003,2.49671611 14.6081841,2.06981074 14.7784143,1.64210742 C14.905023,1.32585166 15.1018517,1.17025064 15.4588031,1.17557033 L18.3564399,1.17902813 C18.441821,1.17902813 18.528532,1.17982609 18.6131151,1.19445524 C19.1014629,1.27797442 19.2352532,1.4881023 19.0841739,1.96448082 C18.8463836,2.71296164 18.3843683,3.33642967 17.9327263,3.96149361 C17.4486343,4.630711 16.9323581,5.27652174 16.4530537,5.94866496 C16.0125831,6.56308951 16.0474271,6.87242967 16.5942916,7.40599488 Z" id="Path"></path>
                            </g>
                        </g>
                    </g>
                </g>
            </g>
        </g>
    </g>
</svg>