<?xml version="1.0" encoding="UTF-8"?>
<svg width="32px" height="32px" viewBox="0 0 32 32" version="1.1" xmlns="http://www.w3.org/2000/svg" xmlns:xlink="http://www.w3.org/1999/xlink">
    <!-- Generator: Sketch 49.3 (51167) - http://www.bohemiancoding.com/sketch -->
    <title>svg/index/share_facebook_icon</title>
    <desc>Created with Sketch.</desc>
    <defs></defs>
    <g id="Page-1" stroke="none" stroke-width="1" fill="none" fill-rule="evenodd">
        <g id="geely_index_menu_cars_03" transform="translate(-818.000000, -1320.000000)">
            <g id="Следите-за-нами-в-соцсетях" transform="translate(70.000000, 1245.000000)">
                <g id="Табы-соцсетей" transform="translate(431.000000, 75.000000)">
                    <g id="F" transform="translate(317.000000, 0.000000)">
                        <g id="svg/index/share_facebook_icon">
                            <circle id="Oval-2" fill="#B9CEE7" opacity="0.234318388" cx="16" cy="16" r="16"></circle>
                            <g id="facebook-logo" transform="translate(12.000000, 8.000000)" fill="#0167B2" fill-rule="nonzero">
                                <path d="M7.69874348,0.00312100122 L5.77990725,0 C3.62416056,0 2.23102234,1.44892482 2.23102234,3.69152024 L2.23102234,5.39355825 L0.301718332,5.39355825 C0.13500356,5.39355825 0,5.53057021 0,5.69957242 L0,8.16563153 C0,8.33463375 0.135157498,8.47148965 0.301718332,8.47148965 L2.23102234,8.47148965 L2.23102234,14.6941419 C2.23102234,14.8631441 2.3660259,15 2.53274067,15 L5.04993361,15 C5.21664839,15 5.35165195,14.862988 5.35165195,14.6941419 L5.35165195,8.47148965 L7.60745829,8.47148965 C7.77417306,8.47148965 7.90917662,8.33463375 7.90917662,8.16563153 L7.91010025,5.69957242 C7.91010025,5.61842639 7.8782351,5.54071346 7.82173988,5.48328704 C7.76524467,5.42586062 7.6882757,5.39355825 7.60822798,5.39355825 L5.35165195,5.39355825 L5.35165195,3.95071939 C5.35165195,3.25723292 5.51467221,2.90518398 6.40581885,2.90518398 L7.69843561,2.90471583 C7.86499644,2.90471583 8,2.76770388 8,2.59885771 L8,0.308979121 C8,0.140289005 7.86515038,0.00343310134 7.69874348,0.00312100122 Z" id="Shape"></path>
                            </g>
                        </g>
                    </g>
                </g>
            </g>
        </g>
    </g>
</svg>